<svg xmlns="http://www.w3.org/2000/svg" width="391.534" height="351.552" viewBox="0 0 391.534 351.552"><defs><style>.a{fill:#fff;}.b{fill:#fc5e2e;}.c{fill:#4e9de0;}.d{fill:#252a30;}.e{fill:#d3e7f0;}.f{fill:#3e8cc6;}.aa,.af,.ag,.g,.j,.o,.s,.t,.z{fill:none;}.h{fill:#3c596d;}.i{fill:#d63e30;}.j{stroke:#d63e30;stroke-width:1.822px;}.aa,.af,.ag,.j,.o,.s,.t,.z{stroke-miterlimit:10;}.k{fill:#dec6a0;}.l{fill:#4294d1;}.m{fill:#f1a928;}.n{fill:#fec661;}.o{stroke:#bb4972;stroke-width:1.077px;}.p{fill:#131214;}.q{fill:#c1b9a2;}.r{fill:#f8f7f6;}.s,.t,.z{stroke:#d5bb95;}.s{stroke-width:1.033px;}.t{stroke-width:1.047px;}.u{fill:#64a295;}.v{fill:#010038;}.w{fill:#170a19;}.x{fill:#c66d6d;}.y{fill:#4695d1;}.z{stroke-width:1.091px;}.aa{stroke:#fff;stroke-width:0.138px;}.ab{fill:#373862;}.ac{fill:#26749b;}.ad{fill:#3588bc;}.ae{fill:#c12e27;}.af{stroke:#3e8cc6;stroke-linecap:round;stroke-width:0.548px;}.ag{stroke:#000;stroke-width:0.762px;}.ah{fill:#293a54;}.ai{fill:#212f47;}</style></defs><g transform="translate(-221 -2819)"><path class="a" d="M198.77-39.448c84.707,0,99.6,102.469,99.6,187.176A153.376,153.376,0,0,1,144.99,301.1c-84.707,0-203.567-108.079-203.567-192.786S114.063-39.448,198.77-39.448Z" transform="translate(279.577 2869.448)"/><g transform="translate(-106.03 2715.231)"><g transform="translate(329.691 105.089)"><g transform="translate(232.566 46.402)"><path class="b" d="M541.741,151.69a2.449,2.449,0,1,1,2.449-2.449,2.449,2.449,0,0,1-2.449,2.449Zm0-4.066a1.617,1.617,0,1,0,1.617,1.617,1.617,1.617,0,0,0-1.617-1.617Z" transform="translate(-539.292 -146.792)"/></g><g transform="translate(354.765 95.762)"><path class="b" d="M651.908,196.19a2.449,2.449,0,1,1,2.449-2.449,2.449,2.449,0,0,1-2.449,2.449Zm0-4.066a1.617,1.617,0,1,0,1.617,1.617,1.617,1.617,0,0,0-1.617-1.617Z" transform="translate(-649.459 -191.292)"/></g><g transform="translate(15.156 41.594)"><path class="b" d="M345.741,147.358a2.45,2.45,0,1,1,2.449-2.449,2.45,2.45,0,0,1-2.449,2.449Zm0-4.067a1.618,1.618,0,1,0,1.617,1.618,1.618,1.618,0,0,0-1.617-1.618Z" transform="translate(-343.29 -142.457)"/></g><g transform="translate(305.036 27.545)"><path class="c" d="M607.074,134.69a2.449,2.449,0,1,1,2.45-2.45,2.449,2.449,0,0,1-2.45,2.45Zm0-4.066a1.617,1.617,0,1,0,1.618,1.618A1.617,1.617,0,0,0,607.074,130.624Z" transform="translate(-604.626 -129.792)"/></g><g transform="translate(383.975 195.223)"><path class="c" d="M678.241,285.857a2.449,2.449,0,1,1,2.449-2.449,2.449,2.449,0,0,1-2.449,2.449Zm0-4.068a1.617,1.617,0,1,0,1.617,1.618,1.617,1.617,0,0,0-1.617-1.618Z" transform="translate(-675.792 -280.959)"/></g><g transform="translate(0 135.694)"><path class="c" d="M332.074,232.19a2.449,2.449,0,1,1,2.45-2.45A2.449,2.449,0,0,1,332.074,232.19Zm0-4.066a1.617,1.617,0,1,0,1.618,1.618,1.617,1.617,0,0,0-1.618-1.618Z" transform="translate(-329.626 -227.292)"/></g><g transform="translate(117.023)"><path class="c" d="M437.574,109.857a2.449,2.449,0,1,1,2.45-2.45,2.449,2.449,0,0,1-2.45,2.45Zm0-4.068a1.617,1.617,0,1,0,1.618,1.618A1.617,1.617,0,0,0,437.574,105.79Z" transform="translate(-435.126 -104.959)"/></g><g transform="translate(152.516 63.223)"><path class="c" d="M469.574,166.858a2.45,2.45,0,1,1,2.45-2.449,2.45,2.45,0,0,1-2.45,2.449Zm0-4.068a1.618,1.618,0,1,0,1.618,1.618A1.618,1.618,0,0,0,469.574,162.79Z" transform="translate(-467.124 -161.957)"/></g></g><g transform="translate(329.03 103.769)"><g transform="translate(45.225 80.437)"><path class="d" d="M3.045,0H285.653A3.045,3.045,0,0,1,288.7,3.045v168.2a3.046,3.046,0,0,1-3.046,3.046H3.045A3.045,3.045,0,0,1,0,171.247V3.045A3.045,3.045,0,0,1,3.045,0Z" transform="translate(0 0)"/><rect class="a" width="153.934" height="265.036" transform="translate(276.868 10.178) rotate(90)"/><rect class="d" width="61.596" height="22.791" transform="translate(113.551 174.291)"/><rect class="d" width="113.967" height="8.727" transform="translate(87.366 197.083)"/></g><g transform="translate(64.679 146.656)"><g transform="translate(159.867)"><rect class="e" width="89.925" height="6.661"/><rect class="e" width="89.925" height="6.661" transform="translate(0 17.762)"/><rect class="e" width="67.999" height="6.661" transform="translate(21.926 35.525)"/><rect class="e" width="67.999" height="6.661" transform="translate(21.926 53.288)"/><rect class="e" width="67.999" height="6.661" transform="translate(21.926 71.051)"/></g><g transform="translate(0 0)"><rect class="e" width="89.925" height="6.661" transform="translate(89.925 6.661) rotate(180)"/><rect class="e" width="89.925" height="6.661" transform="translate(89.925 24.424) rotate(180)"/><rect class="e" width="67.999" height="6.661" transform="translate(67.999 42.187) rotate(180)"/><rect class="e" width="67.999" height="6.661" transform="translate(67.999 59.949) rotate(180)"/><rect class="e" width="67.999" height="6.661" transform="translate(67.999 77.712) rotate(180)"/></g></g><g transform="translate(28.027 90.492)"><g transform="translate(0)"><path class="a" d="M445.814,185.425v.068l-14.6,20.765v.52c-14.957,0-28.653-.017-40.376-.051v-.469l21.906-20.765v-.033C422.342,185.442,433.556,185.442,445.814,185.425Z" transform="translate(-350.306 -185.342)"/><path class="a" d="M504,206.262v.436c-13.58.017-27.16.051-40.37.068v-.5l7.3-20.765v-.1c10.809-.017,21.939-.017,33.068-.017v20.882Z" transform="translate(-342.356 -185.346)"/><path class="a" d="M562.9,185.5l14.6,20.765v.252c-12.707.033-26.321.067-40.376.1v-.353l-7.3-20.765v-.134c11.516-.017,22.661-.017,33.069-.017Z" transform="translate(-335.125 -185.35)"/><path class="f" d="M416.732,185.456v.033l-21.906,20.765v.469c-24.592-.067-40.527-.032-40.529-.03l29.365-21.2S396.588,185.473,416.732,185.456Z" transform="translate(-354.297 -185.338)"/><path class="f" d="M427.23,206.261l14.6-20.765v-.068c10.408-.017,21.553-.033,33.069-.033v.1l-7.3,20.765v.5c-14.051,0-27.664.017-40.376.017Z" transform="translate(-346.332 -185.345)"/><path class="f" d="M540.392,206.264v.353c-13.193.033-26.773.05-40.376.083V185.382c11.129-.017,22.259-.017,33.068-.017v.134Z" transform="translate(-338.381 -185.348)"/><path class="f" d="M614.62,206.265v.134c-11.717.033-25.415.067-40.37.118v-.252l-14.6-20.765v-.151c12.254,0,23.484,0,33.068.017v.134Z" transform="translate(-331.869 -185.35)"/><path class="a" d="M622.527,185.5l29.155,21.243s-15.727-.412-40.318-.344v-.134L589.458,185.5v-.134C609.6,185.382,622.527,185.415,622.527,185.5Z" transform="translate(-328.612 -185.348)"/></g><g transform="translate(0 0.004)"><path class="g" d="M394.826,206.734c-24.592-.067-40.522-.05-40.529-.043L383.663,185.5s12.926-.017,33.069-.033c9.6-.018,20.814-.018,33.068-.034,10.408-.017,21.553-.033,33.069-.033,10.809-.017,21.939-.017,33.068-.017s22.259-.017,33.068-.017c11.516-.017,22.661-.017,33.069-.017,12.254,0,23.483,0,33.068.017,20.143.017,33.069.05,33.069.134l29.155,21.243s-15.727-.411-40.318-.344c-11.717.033-25.414.067-40.37.118-12.707.033-26.321.067-40.376.1-13.193.033-26.773.05-40.376.083-13.58.017-27.16.051-40.37.068-14.05,0-27.664.017-40.376.017C420.239,206.785,406.545,206.769,394.826,206.734Z" transform="translate(-354.297 -185.354)"/><line class="g" y1="20.765" x2="21.906" transform="translate(40.529 0.146)"/><line class="g" y1="20.765" x2="14.604" transform="translate(80.899 0.146)"/><line class="g" y1="20.765" x2="7.302" transform="translate(121.269 0.146)"/><line class="g" y1="20.765" transform="translate(161.64 0.146)"/><line class="g" x1="7.302" y1="20.765" transform="translate(194.708 0.146)"/><line class="g" x1="14.604" y1="20.765" transform="translate(227.777 0.146)"/><line class="g" x1="21.906" y1="20.765" transform="translate(260.846 0.146)"/></g><path class="h" d="M374.587,231.231h0A20.284,20.284,0,0,1,354.3,210.944v-6.571h40.566v6.574A20.283,20.283,0,0,1,374.587,231.231Z" transform="translate(-354.297 -183.272)"/><path class="e" d="M0,0H40.566V6.574A20.283,20.283,0,0,1,20.283,26.858h0A20.283,20.283,0,0,1,0,6.574Z" transform="translate(40.609 21.101)"/><path class="h" d="M0,0H40.566V6.574A20.283,20.283,0,0,1,20.283,26.858h0A20.283,20.283,0,0,1,0,6.574Z" transform="translate(81.209 21.101)"/><path class="e" d="M0,0H40.566V6.574A20.283,20.283,0,0,1,20.283,26.858h0A20.283,20.283,0,0,1,0,6.574Z" transform="translate(121.077 21.101)"/><path class="h" d="M520.306,231.231h0a20.283,20.283,0,0,1-20.283-20.283v-6.574H540.59v6.574a20.283,20.283,0,0,1-20.283,20.283Z" transform="translate(-338.381 -183.272)"/><path class="e" d="M0,0H40.566V6.574A20.283,20.283,0,0,1,20.283,26.858h0A20.283,20.283,0,0,1,0,6.574Z" transform="translate(202.209 21.101)"/><path class="h" d="M593.45,231.231h0a20.283,20.283,0,0,1-20.283-20.283v-6.574h40.566v6.574A20.283,20.283,0,0,1,593.45,231.231Z" transform="translate(-330.392 -183.272)"/><path class="e" d="M629.266,231.231h0a20.283,20.283,0,0,1-20.283-20.283v-6.574h40.567v6.574A20.283,20.283,0,0,1,629.266,231.231Z" transform="translate(-326.48 -183.272)"/></g><g transform="translate(167.415 145.356)"><rect class="e" width="44.319" height="44.319"/><g transform="translate(5.076 6.513)"><g transform="translate(0 8.839)"><path class="i" d="M512.7,271.034H490.542a2.147,2.147,0,0,1-2.093-1.694l-3.866-18.1a2.141,2.141,0,0,1,2.094-2.588h29.884a2.139,2.139,0,0,1,2.093,2.588l-3.862,18.1A2.155,2.155,0,0,1,512.7,271.034Zm-26.019-20.36-.116.144,3.866,18.1a.111.111,0,0,0,.111.094h22.155a.12.12,0,0,0,.118-.094l3.863-18.1-.111-.144Z" transform="translate(-484.536 -248.653)"/></g><g transform="translate(7.32 9.818)"><g transform="translate(13.98 0)"><rect class="i" width="20.383" height="2.022" transform="translate(0 20.07) rotate(-79.944)"/></g><g transform="translate(0 0)"><rect class="i" width="2.022" height="20.383" transform="translate(0 0.352) rotate(-10.032)"/></g></g><g transform="translate(16.072 9.994)"><rect class="i" width="2.021" height="20.288"/></g><g transform="translate(25.887 9.994)"><path class="j" d="M507.874,249.694" transform="translate(-507.874 -249.694)"/></g><g transform="translate(6.258)"><path class="i" d="M511.832,250.534h-2.021v-2.5a5.335,5.335,0,0,0-5.33-5.324h-6.958a5.334,5.334,0,0,0-5.324,5.324v2.5h-2.021v-2.5a7.358,7.358,0,0,1,7.35-7.35h6.955a7.357,7.357,0,0,1,7.351,7.35Z" transform="translate(-490.178 -240.684)"/></g><g transform="translate(2.12 15.867)"><rect class="i" width="29.78" height="2.021"/></g><g transform="translate(3.715 22.098)"><rect class="i" width="27.17" height="2.021"/></g></g></g><g transform="translate(150.926 199.251)"><rect class="c" width="77.296" height="21.094"/><g transform="translate(23.238 6.467)"><path class="a" d="M489.852,298.055h-3.807V289.23h3.642c1.846,0,2.87.962,2.87,2.276a2.032,2.032,0,0,1-1.5,2.022,2.142,2.142,0,0,1,1.707,2.137C492.761,297.072,491.684,298.055,489.852,298.055Zm-.418-7.4h-1.618v2.213h1.618c.835,0,1.314-.38,1.314-1.1S490.269,290.66,489.434,290.66Zm.126,3.577h-1.745v2.377H489.6c.86,0,1.365-.417,1.365-1.162s-.543-1.215-1.4-1.215Z" transform="translate(-486.045 -289.23)"/><path class="a" d="M495.63,289.23H497.4v5.462a1.789,1.789,0,1,0,3.577,0V289.23h1.784v5.451a3.328,3.328,0,0,1-3.6,3.464,3.266,3.266,0,0,1-3.527-3.464Z" transform="translate(-484.998 -289.23)"/><path class="a" d="M505.214,289.23h2l1.9,4.033,1.886-4.033h1.971l-2.983,5.753v3.071h-1.775v-3.071Z" transform="translate(-483.951 -289.23)"/></g></g><g transform="translate(318.202 136.675)"><g transform="translate(0 8.531)"><path class="k" d="M663.112,324.48c7.394-2.941,3.472,24.211,1.156,31.825s-2.149,2.909-2.926-10.066S660.2,325.636,663.112,324.48Z" transform="translate(-610.997 -224.892)"/><path class="k" d="M652.676,323.878c7.643-1.865,1.849,24.835-1.237,32.063s-3.344,2.272-2.773-10.718S649.669,324.612,652.676,323.878Z" transform="translate(-612.348 -224.944)"/><path class="k" d="M647.437,348.368l-.288,9.768,3.93-.111,2.369-10.346Z" transform="translate(-612.487 -222.334)"/><path class="k" d="M659.826,348.452l1.109,9.71,3.874-.675.87-10.579Z" transform="translate(-611.102 -222.418)"/><path class="k" d="M662.523,294.911a4.984,4.984,0,0,1,6.238,3.807,71.02,71.02,0,0,1,1,11.911c-.132,9.928.281,19.1-3.316,21.132s-8.262-3.135-9.291-12.787c-.93-8.725-3.4-19.443-1.033-21.415C657.316,296.56,660.082,295.608,662.523,294.911Z" transform="translate(-611.616 -228.118)"/><path class="k" d="M656.729,295.174a5.063,5.063,0,0,1,5.068,5.05,74.7,74.7,0,0,1-.9,11.731c-1.618,9.568-2.628,18.524-6.188,19.7s-7-4.843-6.474-14.4c.476-8.639-.142-19.541,2.3-20.928C651.77,295.626,654.413,295.314,656.729,295.174Z" transform="translate(-612.374 -228.069)"/><path class="c" d="M647.917,287.521l-2.125,70.487,8.786-.111s8.256-52.928,7.692-61.562S647.917,287.521,647.917,287.521Z" transform="translate(-612.635 -228.905)"/><path class="l" d="M670.1,293.9s-.111,31.28-.358,35.531-1.86,28.785-1.86,28.785h-7.74s-5.738-54.13-5.99-67.265S670.1,293.9,670.1,293.9Z" transform="translate(-611.723 -229.094)"/><path class="k" d="M663.314,254.059a3.57,3.57,0,0,1-1.1,3.65c-4.521,4.164-19.9,17.871-23.224,14.763-3.9-3.653,10.47-15,15.049-17.761C657.855,252.415,662.313,250.906,663.314,254.059Z" transform="translate(-613.45 -232.755)"/><path class="k" d="M645.239,270.648a3.525,3.525,0,0,0-1.413-2.946c-4.468-3.508-20.742-16.093-22.935-14.906-2.54,1.378,20.1,20.6,21.572,20.162C643.606,272.615,645.121,272.494,645.239,270.648Z" transform="translate(-615.376 -232.706)"/><path class="k" d="M616.033,249.254c.467-.631,3.562,1.892,4.541,2.527a.72.72,0,0,0,.286.143c.037-.008.028-.057,0-.125-.189-.431-1.452-1.886-.955-2.429.547-.6,2.976,1.314,3.858,2.6.049.071.111.147.151.214a3.01,3.01,0,0,1,.239,3.439c-1.135,2.068-4.553-.349-5.689-1.22a7.365,7.365,0,0,1-2.149-2.937C615.907,250.491,615.774,249.6,616.033,249.254Z" transform="translate(-615.9 -233.095)"/><path class="m" d="M655.813,253.126s-12.821,9.761-14.01,9.882S627.575,255,627.575,255l-3.378,4.326s14.229,14.37,17.356,14.557,11.508-4.881,11.508-4.881Z" transform="translate(-614.994 -232.661)"/><path class="k" d="M664.859,250.5l-7.509,2.941-.5-4.753a4.075,4.075,0,0,1-.7.333,5.313,5.313,0,0,1-4.975-.648A2.815,2.815,0,0,1,650.154,247a11.184,11.184,0,0,1-.536-3.828,2.861,2.861,0,0,1,.018-.389,42.587,42.587,0,0,1,1.018-7.8c-.019-.019-.038-.038-.056-.038l.056-.092s3.847-.832,4.734,1.109c.648,1.424-.295,2.59.3,3.4.962,1.35,2.756-2.9,3.68-2.609.906.3,1.721,1.388.482,3.349-1.757,2.755,4.2,4.087,4.2,4.087h.093q-.044.058-.093.111Z" transform="translate(-612.218 -234.676)"/><path class="n" d="M656.258,251.2a16.971,16.971,0,0,0-5.622,5.231c-2.716,4.128-3.953,22.2-3.953,29.13a41.63,41.63,0,0,0,.693,9.826s8.492,3.226,14.5,3.353c4.56.512,8.281.393,8.816-.2.84-.937.509-1.871.6-8.529s1.31-16.229,2.241-28.515c.548-7.1-3.036-10.243-5.52-12.149l-.05.024.053-.027a12.721,12.721,0,0,0-2.972-1.853,13.282,13.282,0,0,1-7.647,3.092v.03a11.452,11.452,0,0,0-1.133.586m-1.34,3.447.01-.026Zm-1.086,2.995v.006h0Z" transform="translate(-612.543 -233.277)"/><g transform="translate(24.424 19.911)"><path class="k" d="M668.687,252.976a3.569,3.569,0,0,1,1.716,3.4c-.412,6.132-2.13,26.663-6.677,26.7-5.345.038-2.737-18.088-1.317-23.241C663.594,255.54,665.79,251.377,668.687,252.976Z" transform="translate(-635.451 -252.627)"/><path class="k" d="M666.842,276.325a3.52,3.52,0,0,0-3.2-.647c-5.492,1.45-25.346,6.857-25.717,9.317-.43,2.857,28.555-3.626,29.089-5.064C667.43,278.815,668.245,277.533,666.842,276.325Z" transform="translate(-637.919 -250.124)"/></g><path class="m" d="M672.8,253.125a4.267,4.267,0,0,0-5.239-.752c-1.541.914-3.292,2.995-4.136,7.654-1.688,9.318-1.442,16.762-2,17.262s-19.138,6.63-19.138,6.63l1.313,5.16S666,287.8,668.565,283.605s4.437-14.385,5.066-20.827C674.1,257.911,674.5,254.936,672.8,253.125Z" transform="translate(-613.017 -232.807)"/><path class="o" d="M647.645,292.194" transform="translate(-612.433 -228.394)"/><path class="c" d="M647.843,354.463a27.2,27.2,0,0,1-4.921,4.689c-3.428,2.662-4.337,2.1-4.407,3.078s14.342,0,14.342,0v-8.046A40.164,40.164,0,0,0,647.843,354.463Z" transform="translate(-613.43 -221.624)"/><path class="c" d="M661.183,354.463a27.2,27.2,0,0,1-4.922,4.689c-3.428,2.662-4.338,2.1-4.408,3.078s14.343,0,14.343,0v-8.046A40.166,40.166,0,0,0,661.183,354.463Z" transform="translate(-611.973 -221.624)"/><path class="g" d="M647.285,288.144l.683.128,1.9.345.48.09" transform="translate(-612.472 -228.836)"/><path class="p" d="M661.216,348.772" transform="translate(-610.95 -222.215)"/><g transform="translate(8.153 34.434)"><path class="a" d="M645.268,280.771l-3.28-13.347-18.738-1.7,4.617,17.1,18.738,3.406Zm-12.453-5.034c-.264-.894.034-1.764.656-1.951s1.338.4,1.6,1.3-.034,1.763-.656,1.95-1.341-.392-1.6-1.294Z" transform="translate(-623.25 -265.72)"/><path class="q" d="M632.535,273c-.621.187-.919,1.057-.656,1.951s.979,1.473,1.6,1.294.919-1.056.655-1.95S633.157,272.817,632.535,273Z" transform="translate(-622.318 -264.929)"/><path class="q" d="M643.1,279.289l1.338,5.46,10.571-3.969Z" transform="translate(-621.082 -264.238)"/><g transform="translate(4.628 16.538)"><path class="r" d="M646.152,284.6l-18.73-3.4v.887l18.73,3.363s-.013-.865,0-.852v.852l10.566-3.967v-.852" transform="translate(-627.422 -280.63)"/></g></g><path class="k" d="M641.995,284.866l-.387-.078-.532-.111a1.333,1.333,0,0,1-.5-.13c-.052-.034-.1-.073-.152-.111a.714.714,0,0,0-.181-.077c-.258-.074-.572-.073-.765-.288a2.99,2.99,0,0,1-.383-.858c-.01-.023-.021-.045-.032-.068a2.687,2.687,0,0,0-1.161-1.13,2.242,2.242,0,0,0-2.123.27c-.444.333-.387.79-.214,1.258a3.1,3.1,0,0,0,1.1,1.515,4.012,4.012,0,0,0,1.688.59,5.2,5.2,0,0,0,1.008.06,7.333,7.333,0,0,0,1-.134,4.492,4.492,0,0,0,.9-.245,2.474,2.474,0,0,0,.631-.365A1.083,1.083,0,0,0,641.995,284.866Z" transform="translate(-613.766 -229.523)"/></g><path class="d" d="M667.721,237.6v-.021a2.016,2.016,0,0,0,.256-.991,1,1,0,0,0-.241-.759c-.537-.684-1.941-.61-2.2-1.35-.191-.6.3-.989.482-1.553h-.006v-.01a1.34,1.34,0,0,0-.148-1.147c-.759-1.368-2.9-.962-3.588-1.424-.7-.463.018-1.96-1.331-2.329-1.35-.388-2.108.944-3.292.722-1.183-.241-1.849-1.906-2.977-1.739s-1.628,1.073-2.313,1.277a10.672,10.672,0,0,0-1.312.425,2.257,2.257,0,0,0-1.036.776.582.582,0,0,0-.093.184.068.068,0,0,0-.019.055l-.055.166a1.734,1.734,0,0,0-.018.535c.033.348.132.693.145.984a.733.733,0,0,1-.072.387,3.66,3.66,0,0,1-.573.648,1.642,1.642,0,0,0-.314,1.35,2.36,2.36,0,0,0,1.481,1.879c.008.007.011.016.019.021a.894.894,0,0,0,.149.111l.055-.092s3.847-.832,4.734,1.109c.648,1.424-.3,2.59.3,3.4.962,1.35,2.756-2.9,3.68-2.609.906.3,1.721,1.388.482,3.349-1.757,2.755,4.2,4.087,4.2,4.087h.093c.165-.222.536-.7.979-1.388l.013-.021a5,5,0,0,0,1.964-1.361c.591-.759.147-1.388-.166-2.072a3.609,3.609,0,0,1-.19-.5,1.365,1.365,0,0,1-.049-.5C666.833,238.412,667.388,238.2,667.721,237.6Z" transform="translate(-612.287 -226.986)"/></g><g transform="translate(40.087)"><path class="k" d="M380.558,123.646a11.032,11.032,0,0,1,4.936,1.065c2.873,2.523,8.119,8.721,7.882,13.933-.291,6.388-2.71,7.452-2.71,12s1.743,13.643,1.743,14.808-18.679.677-19.066.193.212-33.985,1.355-37.261C375.825,125.148,376.863,124.353,380.558,123.646Z" transform="translate(-364.29 -101.598)"/><path class="s" d="M375.44,168.966a5.184,5.184,0,0,0,4.353,6.232,33.942,33.942,0,0,0,9.719-.17c10.3-1.52,22.548-.5,24.428-4.361s-3.784-8.375-13.865-8.822c-9.117-.4-20.4-2.282-22.3.3C376.817,163.455,376.006,166.39,375.44,168.966Z" transform="translate(-364.061 -97.539)"/><path class="s" d="M378.582,165.262a5.182,5.182,0,0,0,2.3,7.243,33.89,33.89,0,0,0,9.331,2.729c10.285,1.612,21.675,6.231,24.625,3.106s-1.123-9.121-10.619-12.548c-8.583-3.1-18.8-8.245-21.375-6.343C381.536,160.409,379.889,162.97,378.582,165.262Z" transform="translate(-363.779 -97.732)"/><path class="t" d="M389.739,137.5" transform="translate(-362.487 -100.084)"/><path class="u" d="M377.262,124" transform="translate(-363.849 -101.559)"/><path class="k" d="M374.47,125.827" transform="translate(-364.154 -101.359)"/><g transform="translate(34.295 68.175)"><path class="k" d="M411.65,165.952c-6.589-5.853-14.151,25.563-14.29,33.942s3.876.427,8.939-11.95S414.243,168.255,411.65,165.952Z" transform="translate(-395.949 -165.23)"/><path class="v" d="M399.975,198.234a16.333,16.333,0,0,0,1.838,3.291c1.357,1.966,1.927,1.822,1.8,2.348s-7.525-2.387-7.525-2.387l1.492-4.173a19.135,19.135,0,0,1,2.395.921Z" transform="translate(-396.088 -161.726)"/></g><g transform="translate(46.327 75.219)"><path class="k" d="M410.524,171.655c-8.63-1.785.495,29.215,4.556,36.546s3.573-1.564,1.784-14.817S413.921,172.357,410.524,171.655Z" transform="translate(-406.935 -171.581)"/><path class="v" d="M417.292,204.921a16.426,16.426,0,0,0,3.234,1.934c2.156,1.026,2.58.618,2.733,1.137s-7.712,1.686-7.712,1.686l-.79-4.36A19.007,19.007,0,0,1,417.292,204.921Z" transform="translate(-406.081 -167.94)"/></g><g transform="translate(29.094 42.295)"><path class="w" d="M392.832,163.143h21.006l8.964-19.256a1.331,1.331,0,1,0-2.406-1.119l-8.254,17.721H392.832a1.331,1.331,0,1,0,0,2.654Z" transform="translate(-391.399 -141.899)"/></g><g transform="translate(11.701 23.418)"><path class="k" d="M384.572,126.32a3.155,3.155,0,0,0-2.656,2c-2.063,4.9-8.706,21.442-5.186,23.172,4.138,2.032,9.154-12.978,10.054-17.5C387.529,130.215,387.44,126.17,384.572,126.32Z" transform="translate(-375.719 -124.724)"/><g transform="translate(0.02 22.522)"><path class="k" d="M376.528,145.867a3.359,3.359,0,0,1,3.125-.5c5.324,1.656,24.578,7.8,24.906,10.233.382,2.82-27.745-4.77-28.246-6.2C375.918,148.286,375.141,147,376.528,145.867Z" transform="translate(-375.737 -145.185)"/><path class="k" d="M399.285,153.812c.488-1.664,3.266-.5,4.2-.065,1.52.705,2.762,2.679,2.492,3.286s-3.632-1.2-3.809-1.116,1.373,1.126,1.061,1.669-2.541-.565-3.253-1.351A2.218,2.218,0,0,1,399.285,153.812Z" transform="translate(-373.178 -144.338)"/></g><path class="x" d="M384.684,143.01s7.254-15.64,1.269-17.925C380.036,122.83,376.615,140,376.615,140Z" transform="translate(-375.621 -124.881)"/></g><path class="d" d="M377.192,135.86c-.391.291-.763.612-1.131.931l-2.079,1.8a7.934,7.934,0,0,1-2.826,1.815,4.023,4.023,0,0,1-3.533-.666c-2.482-1.925-.9-4.6-1.252-7.141-.2-1.484-1.18-2.773-1.2-4.29a5.894,5.894,0,0,1,2.191-4.287c1.568-1.378,3.512-2.029,5.176-3.243a5.182,5.182,0,0,0,2.233-3.139c.284-1.471.14-3.061.851-4.427.845-1.625,2.656-2.642,3.825-4.025a16.957,16.957,0,0,1,4.683-4.237,9.716,9.716,0,0,1,6.389-1.019,7.8,7.8,0,0,1,3.613,1.626c4.478,3.835-.033,9.144-.527,13.524-.292,2.583,1.025,5.965-.909,8.138-.555.62-1.307.978-1.859,1.6a6.425,6.425,0,0,0-1.3,2.421,22.823,22.823,0,0,0-.65,4.254c-.117,1.1-.2,2.953-.937,3.846-.666.8-1.421-.156-1.963-.776a22.185,22.185,0,0,0-2.227-2.645,5.3,5.3,0,0,0-5.2-.845,6.359,6.359,0,0,0-1.362.792Z" transform="translate(-365.17 -103.769)"/><rect class="k" width="6.037" height="8.488" transform="translate(17.24 16.545) rotate(15.828)"/><path class="k" d="M385.817,124s4.084,1.56,5.026.368,3.267-8.329,1.117-12.459-7.867-4.9-10.666-2.471S380.01,122.3,382.4,123.081A22.71,22.71,0,0,0,385.817,124Z" transform="translate(-363.574 -103.299)"/><g transform="translate(11.82 1.515)"><path class="d" d="M375.826,124.423s1.69.5,4.819-1.352c7.537-4.467,7.792-8.9,12.417-10.508,0,0,1.391-6.323-3.586-7.314s-11.012,4.7-11.922,7.493S375.826,124.423,375.826,124.423Z" transform="translate(-375.826 -105.135)"/></g><path class="n" d="M382.221,123.039a8.4,8.4,0,0,0-7.238,4.587c-2.9,6.023-2.961,37.994-2.634,38.647.444.887,20.639.887,21.082-.148s-2.986-13.562-1.886-17.874,2.7-7.907,2.653-11.665C394.161,133.487,390.081,123.93,382.221,123.039Z" transform="translate(-364.401 -101.664)"/><path class="y" d="M392,161.883s19.57,5.013,22.887,9.657,6.745,34.386,6.745,34.386l-5.639,1.22c-3.648-7.629-8.072-25.43-9.951-26.093s-20.381-4.5-20.381-4.5l-.3-10.759Z" transform="translate(-362.965 -97.421)"/><path class="c" d="M393.589,161.489c7.851-1,21.508-1.695,22.768,3.119,2.081,7.951-11.822,35.8-11.822,35.8l-4.754-1.664c1.553-13.158,5.344-23.772,4.754-24.656s-14.005,4.865-25.356,3.537-6.266-15.257-6.266-15.257Z" transform="translate(-364.448 -97.543)"/><g transform="translate(6.198 23.326)"><path class="k" d="M380.13,126.324a3.338,3.338,0,0,0-2.812,2.107c-2.184,5.189-9.216,22.7-5.491,24.53,4.381,2.151,9.692-13.741,10.649-18.524C383.264,130.447,383.17,126.165,380.13,126.324Z" transform="translate(-370.758 -124.632)"/><g transform="translate(0.029 23.848)"><path class="k" d="M371.617,147.02a3.557,3.557,0,0,1,3.309-.528c5.638,1.754,26.019,8.26,26.366,10.833.4,2.986-29.371-5.05-29.9-6.567C370.977,149.578,370.154,148.21,371.617,147.02Z" transform="translate(-370.783 -146.298)"/><path class="k" d="M395.712,155.428c.517-1.763,3.456-.529,4.444-.071,1.608.748,2.924,2.836,2.639,3.48s-3.845-1.273-4.032-1.181,1.453,1.191,1.124,1.767-2.69-.6-3.444-1.431A2.338,2.338,0,0,1,395.712,155.428Z" transform="translate(-368.074 -145.401)"/></g><path class="m" d="M380.252,143.99s7.679-16.561,1.343-18.975c-6.264-2.388-9.885,15.789-9.885,15.789Z" transform="translate(-370.654 -124.798)"/></g></g><g transform="translate(46.859 144.589)"><path class="k" d="M401.677,293.291a5,5,0,0,0-3.318,6.349,33.319,33.319,0,0,0,3.953,8.285c5.269,8.218,9.252,19.177,13.108,19.177s5.269-6.757,1.671-15.616c-3.252-8.007-6.169-18.493-9-19.041C406.663,292.163,403.978,292.693,401.677,293.291Z" transform="translate(-368.344 -227.758)"/><path class="k" d="M402.148,324.312c-2.917-8.441-22.5,20.274-26.563,29.371s1.442,4.869,11.621-7.051S403.3,327.633,402.148,324.312Z" transform="translate(-370.951 -224.437)"/><path class="k" d="M416.662,319.4c-7.623-4.659-4.459,29.96-1.8,39.559s4.215,2.836,4.478-12.834S419.666,321.231,416.662,319.4Z" transform="translate(-366.839 -224.853)"/><path class="k" d="M397.563,292.725a4.956,4.956,0,0,0-6.008,4.089,32.394,32.394,0,0,0,.05,9.3c1.331,9.864.214,21.563,3.882,23.4s8.051-3.522,8.6-13.159c.492-8.712,2.417-19.478-.031-21.319C402.816,294.106,400.02,293.3,397.563,292.725Z" transform="translate(-369.094 -227.733)"/><path class="d" d="M391.334,252.152c.111-5.4-.474-11.34,4.427-15.427,3.156-3.141,6.877-2.871,9.625-2.108,2.329.643,3.393,3.017,3.82,5.195.69,3.528.036,7.278-.421,10.792a42.4,42.4,0,0,0-.351,5.749c.011,1.523.206,3.006.317,4.52a6.489,6.489,0,0,1-.408,3.151,3.043,3.043,0,0,1-2.962,1.886q-3.154-.056-6.3.111a17.783,17.783,0,0,0-3.487.376,7.486,7.486,0,0,1-4.57-.313,10.752,10.752,0,0,1-5.17-5.048,10.2,10.2,0,0,0,5.484-8.884Z" transform="translate(-369.683 -234.12)"/><rect class="k" width="6.179" height="7.062" transform="matrix(0.962, 0.273, -0.273, 0.962, 27.155, 16.398)"/><path class="k" d="M398.661,252.628s3.86,2.424,5.065,1.4,5.028-7.854,3.668-12.513-7.051-6.6-10.406-4.69-3.921,12.895-1.631,14.177A23.537,23.537,0,0,0,398.661,252.628Z" transform="translate(-368.795 -233.905)"/><path class="z" d="M407.468,269.3" transform="translate(-367.322 -230.278)"/><path class="u" d="M394.462,255.23" transform="translate(-368.743 -231.814)"/><g transform="translate(2.5 24.984)"><g transform="translate(0 0.953)"><path class="k" d="M377.286,294.255c-2-.921-3.2,2.713-3.562,3.969-.59,2.043.266,4.881,1.073,5.127s1.873-4.483,2.108-4.581-.067,2.255.716,2.409,1.576-2.906,1.415-4.245a2.806,2.806,0,0,0-1.749-2.679Z" transform="translate(-373.528 -253.505)"/><path class="k" d="M397.929,257.633a3.182,3.182,0,0,0-3.269.928c-3.771,3.973-16.212,17.5-13.488,20.5,3.2,3.531,13.522-9.127,16.047-13.17C399.326,262.523,400.728,258.569,397.929,257.633Z" transform="translate(-372.736 -257.503)"/><path class="k" d="M385.684,274.1a3.141,3.141,0,0,1,.421,2.884c-1.553,4.82-7.333,22.237-9.539,22.448-2.565.245,4.611-25.25,5.918-25.657C383.5,273.454,384.677,272.789,385.684,274.1Z" transform="translate(-373.257 -255.776)"/></g><path class="m" d="M391.952,260.389s-9.053,10.265-10.728,14.974c-1.415,3.974-3.517,12.592-3.517,12.592l4.894,1.53s3.248-10.006,3.549-10.538,8.94-8.05,11.16-11.574,4.7-8.046,1.675-10.216S391.952,260.389,391.952,260.389Z" transform="translate(-373.072 -256.644)"/></g><path class="k" d="M391.551,257.14" transform="translate(-369.06 -231.606)"/><path class="k" d="M397.017,254.223a4.479,4.479,0,0,0-5.3,2.024,17.11,17.11,0,0,0-2.551,10.538c.753,7.976,5.061,9.248,5.061,17.456s-2.8,13.987-2.369,14.912,18.9,1.964,20.3-.347-3.026-9.983-3.026-16.452,2.379-7.708,1.841-12.737-5.946-8.208-9.263-12.138A11.037,11.037,0,0,0,397.017,254.223Z" transform="translate(-369.328 -231.949)"/><path class="l" d="M412.731,295.164s9.952,21.922,9.952,29.977-1.2,35.636-1.2,35.636l-6.219.2s-2.167-30.947-2.779-32.475-18.557-18.048-18.557-31.915S412.731,295.164,412.731,295.164Z" transform="translate(-368.801 -228.013)"/><path class="c" d="M392.348,294.96s-2.957,4.486-2.551,12.032,4.69,19.169,3.568,21.31-18.557,27.53-18.557,27.53l4.69,4.283s25.29-27.123,26.408-31.2,5.71-28.651,5.71-32.934S392.348,294.96,392.348,294.96Z" transform="translate(-370.889 -227.605)"/><path class="n" d="M393.235,253.6a2.875,2.875,0,0,1,1.893-.242,15.05,15.05,0,0,1,7.453,3.835c3.417,3.439,8.945,6.8,9.671,13.077s-2.626,7.57-1.534,14.453,3.97,13.422,2.589,14.453-5.054,1.911-10.8,1.8-12.472-.153-12.327-1.988,4.037-9.675,2.728-16.328-4.254-12.083-4.254-18.583C388.656,258.4,390.828,254.827,393.235,253.6Z" transform="translate(-369.377 -232.026)"/><path class="aa" d="M410.88,294.659" transform="translate(-366.949 -227.508)"/><g transform="translate(24.649 27.445)"><g transform="translate(0.894 0.597)"><path class="k" d="M427.817,283.938c-.436,1.9,2.935,2.284,4.089,2.37,1.886.142,4.185-1.116,4.255-1.86s-4.231-.812-4.357-1,1.968-.351,1.961-1.057-2.809-.841-3.94-.458A2.486,2.486,0,0,0,427.817,283.938Z" transform="translate(-390.648 -256.963)"/><path class="k" d="M435.719,284.267c-.066.71-2.13,1.864-3.949,1.875-.011-1.043.133-2.462.155-2.762C433.123,283.513,435.786,283.68,435.719,284.267Z" transform="translate(-390.211 -256.782)"/><path class="k" d="M394.869,260.325a3.187,3.187,0,0,0-.143,3.4c2.59,4.831,11.536,20.878,15.243,19.232,4.357-1.935-4.429-15.7-7.478-19.365C399.949,260.535,396.629,257.958,394.869,260.325Z" transform="translate(-394.304 -259.401)"/><path class="k" d="M406.907,277.624a3.143,3.143,0,0,1,2.835-.671c4.937,1.131,22.791,5.367,23.194,7.55.468,2.533-25.555-2.393-26.074-3.66C406.457,279.86,405.692,278.742,406.907,277.624Z" transform="translate(-392.999 -257.494)"/></g><path class="m" d="M395.507,267.215s8.106,14.224,11.828,16.211,12.645,2.6,12.645,2.6l1.121-4.843s-9.38-2.192-9.788-2.651-4.844-11.012-7.495-14.223-6.168-6.988-9.177-4.793S395.507,267.215,395.507,267.215Z" transform="translate(-393.497 -258.863)"/></g><path class="ab" d="M418.165,355.713A21.482,21.482,0,0,0,422,358.826c2.6,1.735,3.229,1.285,3.328,1.987s-10.316.741-10.316.741l-.206-5.8a24.968,24.968,0,0,1,3.363-.039Z" transform="translate(-366.521 -220.844)"/><path class="ab" d="M377.653,354.207a21.438,21.438,0,0,0,.464,4.916c.587,3.072,1.345,3.2.916,3.771s-7.758-6.839-7.758-6.839l3.993-4.215a24.978,24.978,0,0,1,2.385,2.367Z" transform="translate(-371.275 -221.263)"/><path class="d" d="M394.935,256.18v.007c0-.017-.444-2.035-.444-2.054a23.49,23.49,0,0,0-2.142-10.214s3.141-7.81,4.369-8.5c.866-.485,5.51-.62,5.51-.62l5.341,2.979h0a6.631,6.631,0,0,1-1.775,2.588h0a6.3,6.3,0,0,1-1.331.919c-2.363,1.22-5.674,3.039-5.471,6.551.032.571.121,1.3.213,2.127.469,4.274,1.025,11.246-5.482,13.341a26.309,26.309,0,0,0,1.211-7.127Z" transform="translate(-368.973 -234.045)"/><g transform="translate(42.571 53.585)"><g transform="translate(14.857 0.397)"><path class="l" d="M437.713,297.95l-.475-.116c.943-3.819,1.642-9.01-.383-12.053a5.773,5.773,0,0,0-4.128-2.471,2.791,2.791,0,0,0-.444-.033c-4.64,0-8.734,11.139-8.776,11.254l-.459-.166c.183-.5,4.531-12.36,9.752-11.536a6.239,6.239,0,0,1,4.458,2.684C439.386,288.7,438.68,294.037,437.713,297.95Z" transform="translate(-423.048 -282.787)"/></g><g transform="translate(13.257)"><path class="l" d="M436.268,297.593l-.474-.118c.943-3.819,1.643-9.01-.383-12.053a5.775,5.775,0,0,0-4.129-2.473c-4.8-.747-9.173,11.1-9.216,11.223l-.46-.167c.177-.487,4.258-11.577,9.239-11.577a3.2,3.2,0,0,1,.514.039,6.243,6.243,0,0,1,4.46,2.684C437.941,288.345,437.239,293.68,436.268,297.593Z" transform="translate(-421.606 -282.429)"/></g><g transform="translate(0 11.351)"><path class="l" d="M440.153,296.676l-5.879,28.894L412.09,321.1l.078-.233,9.708-28.2Z" transform="translate(-409.388 -292.662)"/><path class="ac" d="M434.538,322.794l-1.451,1.022-23.433-5.035,2.761-.7h.019l-.078.233Z" transform="translate(-409.654 -289.885)"/><path class="ad" d="M422.143,292.663l-9.708,28.2h-.019l-2.761.7,9.9-28.083Z" transform="translate(-409.654 -292.662)"/></g></g><g transform="translate(53.408 53.883)"><g transform="translate(7.646)"><path class="b" d="M426.8,296.344l-.486-.052c.056-.532,1.442-13.075,6.7-13.541a6.244,6.244,0,0,1,4.974,1.536c2.827,2.588,3.421,7.938,3.421,11.97h-.49c0-3.933-.565-9.141-3.261-11.609a5.757,5.757,0,0,0-4.6-1.409C428.2,283.667,426.817,296.216,426.8,296.344Z" transform="translate(-426.317 -282.697)"/></g><g transform="translate(5.996 0)"><path class="b" d="M425.316,296.344l-.486-.052c.057-.533,1.442-13.076,6.7-13.541a6.247,6.247,0,0,1,4.974,1.536c2.826,2.588,3.421,7.938,3.421,11.97h-.486c0-3.933-.566-9.141-3.261-11.609a5.76,5.76,0,0,0-4.6-1.409C426.716,283.666,425.329,296.216,425.316,296.344Z" transform="translate(-424.83 -282.697)"/></g><g transform="translate(0 13.069)"><path class="b" d="M443.078,294.479l1.22,29.462-22.607.978.02-.244,2.662-29.706Z" transform="translate(-419.176 -294.479)"/><path class="ae" d="M444.548,321.04l-1.164,1.34-23.959.733,2.513-1.34h.02l-.02.244Z" transform="translate(-419.424 -291.578)"/><path class="i" d="M424.62,294.92l-2.662,29.706h-.02l-2.514,1.34,2.875-29.638Z" transform="translate(-419.424 -294.431)"/></g></g></g><g transform="translate(268.345 216.771)"><path class="f" d="M589.931,348.073c-3.425-3.66-5.9-8.016-4.906-13.214.408-2.145.823-3.931-.608-5.793a17.334,17.334,0,0,1-2-2.654c-1.442-2.884-.36-5.919.878-8.652a25.383,25.383,0,0,0,2.245-6.257c.381-2.329-.241-4.639-.1-6.974.135-2.263,1.3-4.763,3.511-5.273a4.946,4.946,0,0,1,4.157,1.283,8.109,8.109,0,0,1,2.653,4.348c.529,2.3.052,4.846,1.109,6.959.933,1.865,2.865,2.995,4.171,4.62a8.231,8.231,0,0,1,1.711,6.228c-.258,1.826-1.134,3.531-1.317,5.366-.412,4.126,2.7,7.972,2.4,12.107a8.957,8.957,0,0,1-3.423,6.141,11.415,11.415,0,0,1-8.036,2.67,5.485,5.485,0,0,1-3.758-2.173" transform="translate(-569.775 -299.195)"/><g transform="translate(20.594 9.387)"><path class="c" d="M594.176,345.523a.3.3,0,0,1-.3-.269l-4.353-37.263a.3.3,0,0,1,.266-.333.314.314,0,0,1,.333.267l4.353,37.27a.306.306,0,0,1-.267.333Z" transform="translate(-589.519 -307.657)"/></g><g transform="translate(22.85 20.507)"><path class="c" d="M591.859,326.435a.3.3,0,0,1-.154-.042.3.3,0,0,1-.111-.416l4.827-8.133a.3.3,0,1,1,.522.31l-4.827,8.134A.307.307,0,0,1,591.859,326.435Z" transform="translate(-591.553 -317.683)"/></g><g transform="translate(15.619 20.21)"><path class="c" d="M591.728,321.067a.3.3,0,0,1-.131-.03L585.218,318a.3.3,0,1,1,.262-.548l6.38,3.037a.305.305,0,0,1-.132.579Z" transform="translate(-585.033 -317.415)"/></g><g transform="translate(18.365 34.089)"><path class="c" d="M593.18,332.864a.317.317,0,0,1-.121-.026l-5.368-2.329a.3.3,0,0,1-.158-.4.306.306,0,0,1,.4-.158l5.366,2.329a.3.3,0,0,1-.121.582Z" transform="translate(-587.509 -329.928)"/></g><g transform="translate(24.526 10.181)"><path class="c" d="M593.307,345.046a5.346,5.346,0,0,1-.144-2.618c.629-2.44,2.832-4.2,4.351-6.076a11.928,11.928,0,0,0,2.911-7.925,8.437,8.437,0,0,1,1.8-6.191c1.5-1.836,3.438-3.237,5.025-4.991a36.784,36.784,0,0,0,4.42-5.93c1.072-1.806,3.125-4.532,4.991-1.75a5.363,5.363,0,0,1,.834,3.8c-.555,3.445-3.542,5.851-4.68,9.066a17.03,17.03,0,0,0-.638,5.025,7.341,7.341,0,0,1-1.272,4.455c-.593.707-1.369,1.253-1.9,2.009a8.427,8.427,0,0,0-1.1,3.589,18.708,18.708,0,0,1-1.134,3.789c-1.22,3.135-3.077,6.805-6.206,8.372a4.659,4.659,0,0,1-2.958.535C595.38,349.755,593.856,347.074,593.307,345.046Z" transform="translate(-593.064 -308.374)"/><g transform="translate(5.381 13.98)"><path class="f" d="M598.22,344.879a.3.3,0,0,1-.111-.021.3.3,0,0,1-.173-.394l9.113-23.294a.3.3,0,0,1,.394-.172.3.3,0,0,1,.172.393L598.5,344.684A.3.3,0,0,1,598.22,344.879Z" transform="translate(-597.915 -320.977)"/></g><g transform="translate(16.724 20.161)"><path class="af" d="M608.141,326.549" transform="translate(-608.141 -326.549)"/></g><g transform="translate(9.839 15.406)"><path class="f" d="M603.148,330.662a.3.3,0,0,1-.3-.267l-.91-7.8a.3.3,0,0,1,.266-.333.3.3,0,0,1,.333.266l.912,7.8a.306.306,0,0,1-.268.338Z" transform="translate(-601.934 -322.263)"/></g><g transform="translate(9.942 22.306)"><path class="f" d="M602.33,332.919a.3.3,0,0,1-.169-.555l5.768-3.847a.3.3,0,0,1,.333.5l-5.768,3.847A.3.3,0,0,1,602.33,332.919Z" transform="translate(-602.027 -328.483)"/></g><g transform="translate(4.674 30.288)"><path class="f" d="M599,340.843a.306.306,0,0,1-.291-.214l-1.417-4.558a.3.3,0,0,1,.2-.38.31.31,0,0,1,.38.2l1.417,4.557a.3.3,0,0,1-.2.381A.318.318,0,0,1,599,340.843Z" transform="translate(-597.278 -335.679)"/></g></g><g transform="translate(0 27.503)"><path class="c" d="M592.3,345.762a3.69,3.69,0,0,0-.287-1.8c-.785-1.567-2.541-2.44-3.851-3.491a8.3,8.3,0,0,1-3.144-4.959,5.857,5.857,0,0,0-2.133-3.943c-1.288-1.028-2.813-1.695-4.149-2.652a25.577,25.577,0,0,1-3.877-3.381c-1-1.069-2.79-2.621-3.652-.455a3.73,3.73,0,0,0-.009,2.7c.882,2.261,3.268,3.456,4.514,5.474a11.851,11.851,0,0,1,1.171,3.322,5.111,5.111,0,0,0,1.521,2.841c.507.393,1.115.651,1.585,1.087a5.861,5.861,0,0,1,1.273,2.277A12.932,12.932,0,0,0,582.6,345.2c1.291,1.952,3.093,4.174,5.45,4.778a3.23,3.23,0,0,0,2.09-.071C591.589,349.268,592.23,347.22,592.3,345.762Z" transform="translate(-570.952 -323.99)"/><g transform="translate(8.358 8.307)"><path class="f" d="M588.4,346.559a.3.3,0,0,1-.254-.135l-9.618-14.492a.3.3,0,0,1,.507-.333l9.618,14.492a.305.305,0,0,1-.085.422A.3.3,0,0,1,588.4,346.559Z" transform="translate(-578.487 -331.479)"/></g><path class="ag" d="M578.349,335.59" transform="translate(-570.145 -322.723)"/><g transform="translate(11.72 8.564)"><path class="f" d="M582.35,337.754a.3.3,0,0,1-.3-.274l-.527-5.435a.3.3,0,0,1,.273-.333.307.307,0,0,1,.333.273l.527,5.435a.3.3,0,0,1-.273.333Z" transform="translate(-581.519 -331.711)"/></g><g transform="translate(8.74 14.111)"><path class="f" d="M583.625,339.087a.3.3,0,0,1-.111-.022l-4.49-1.767a.3.3,0,0,1-.171-.394.307.307,0,0,1,.394-.172l4.49,1.767a.3.3,0,0,1-.111.588Z" transform="translate(-578.832 -336.712)"/></g><g transform="translate(17.125 17.922)"><path class="f" d="M586.695,344.065h-.027a.3.3,0,0,1-.275-.333l.293-3.307a.291.291,0,0,1,.333-.275.3.3,0,0,1,.275.333L587,343.79A.3.3,0,0,1,586.695,344.065Z" transform="translate(-586.392 -340.147)"/></g></g><g transform="translate(4.448 48.012)"><g transform="translate(1.687 2.779)"><path class="ah" d="M581.248,363.216h26.208l4.77-18.232H576.483Z" transform="translate(-576.483 -344.984)"/></g><rect class="ai" width="39.112" height="2.78"/></g></g><g transform="translate(0 195.534)"><g transform="translate(12.046 0)"><g transform="translate(0.348 0.802)"><path class="b" d="M348.567,338.214s.86-24.448.352-32.056-3.727-16.925-4.06-25.386a9.415,9.415,0,0,0-2.369,6.006c0,3.55.846,5.838-.677,9.306s-2.454,6.433-.508,11,2.876,6.133,2.2,9.428,1.735,8.121,5.372,9.517" transform="translate(-340.204 -280.772)"/></g><path class="b" d="M348.938,338.305l-.676-.023c0-.111.19-5.482.333-11.931a9.65,9.65,0,0,1-5.391-9.826c.581-2.84-.053-4.307-1.587-7.854q-.278-.642-.592-1.379c-2.024-4.751-1.017-7.788.509-11.265a12.043,12.043,0,0,0,.776-6.433c-.062-.854-.126-1.738-.126-2.733a9.674,9.674,0,0,1,2.464-6.243l.555-.569.031.791a85.962,85.962,0,0,0,2.149,13.844,86.153,86.153,0,0,1,1.912,11.526C349.792,313.753,348.947,338.061,348.938,338.305Zm-4.338-56.55a8.959,8.959,0,0,0-1.739,5.1c0,.971.064,1.841.126,2.684a12.6,12.6,0,0,1-.83,6.757c-1.461,3.328-2.425,6.226-.507,10.728l.591,1.374c1.547,3.578,2.254,5.213,1.63,8.259-.593,2.884,1.383,7.38,4.745,8.957.156-7.188.256-15.5,0-19.366a85.688,85.688,0,0,0-1.9-11.432,93.272,93.272,0,0,1-2.117-13.066Z" transform="translate(-339.89 -280.049)"/></g><g transform="translate(0 16.281)"><g transform="translate(0.346 0.538)"><path class="b" d="M348.539,336.637s-5.146-30.822-18.682-41.425c0,0-1.58,3.737.79,6.655s.719,7.529,3.849,11.674,6.6,3.934,7.107,7.572.253,5.288,4.948,6.853" transform="translate(-329.342 -295.212)"/></g><path class="b" d="M348.241,336.745c-.018-.1-.6-3.526-1.867-8.44-4.358-1.478-4.567-3.136-4.946-6.127-.038-.305-.079-.627-.125-.965-.265-1.893-1.38-2.652-2.925-3.7a15.914,15.914,0,0,1-4.116-3.71,13.458,13.458,0,0,1-2.329-6.857c-.251-1.886-.467-3.52-1.514-4.809-2.468-3.042-.905-6.839-.839-7l.173-.407.348.273c13.483,10.561,18.755,41.325,18.807,41.636Zm-18.186-40.915a6.459,6.459,0,0,0,.887,5.879,9.79,9.79,0,0,1,1.658,5.146,12.756,12.756,0,0,0,2.2,6.539,15.12,15.12,0,0,0,3.959,3.557c1.56,1.064,2.907,1.981,3.217,4.172.048.34.089.666.129.972.353,2.79.522,4.131,4.069,5.423C343.592,317.726,338.473,302.74,330.055,295.831Z" transform="translate(-329.03 -294.727)"/></g><g transform="translate(21.695 24.617)"><g transform="translate(0.344 0.549)"><path class="b" d="M349.038,335.477s-1.866-26.1,8.456-32.74a5.538,5.538,0,0,1-1.267,4.5c-1.8,2.04-.312,4.215-1.486,6.947s-2.419,2.522-3.042,5.461.933,4.146-.173,5.879-2.627,4.043-2.627,4.043" transform="translate(-348.899 -302.737)"/></g><path class="b" d="M348.734,335.554c-.076-1.073-1.761-26.38,8.61-33.048l.413-.264.1.478a5.835,5.835,0,0,1-1.344,4.8,4.437,4.437,0,0,0-.887,3.347,8.2,8.2,0,0,1-.54,3.511,9.114,9.114,0,0,1-1.574,2.487,5.679,5.679,0,0,0-1.442,2.909,7.111,7.111,0,0,0,.071,3.13,3.472,3.472,0,0,1-.291,2.856c-.955,1.493-2.218,3.424-2.551,3.924-.048,3.412.111,5.746.111,5.822Zm8.519-32.167c-6.3,4.581-7.7,17.033-7.93,25.018.542-.83,1.317-2.018,1.952-3.012a2.828,2.828,0,0,0,.2-2.361,7.793,7.793,0,0,1-.071-3.4,6.329,6.329,0,0,1,1.591-3.2,8.441,8.441,0,0,0,1.472-2.322,7.517,7.517,0,0,0,.484-3.238,5.023,5.023,0,0,1,1.059-3.8,5.185,5.185,0,0,0,1.247-3.68Z" transform="translate(-348.589 -302.242)"/></g><path class="d" d="M354.874,366.81h-12l-3.322-35.193h18.635Z" transform="translate(-327.88 -274.417)"/></g><g transform="translate(130.604 239.084)"><rect class="c" width="37.826" height="37.826" rx="4.072" transform="translate(13.632 0) rotate(21.125)"/><path class="a" d="M476.735,347.005l5.783-6.189-15.25-5.892.119,8.47Zm-10.007.147a1.951,1.951,0,1,0,1.117,2.522A1.951,1.951,0,0,0,466.728,347.153Zm6.988,2.7a1.953,1.953,0,1,0,1.08,1.03,1.951,1.951,0,0,0-1.08-1.03Zm2.939-1.56-10.543-4.074-.809-13.126-5.461-2.107a.686.686,0,0,0-.494,1.279l4.64,1.792.809,13.128,11.364,4.39a.685.685,0,1,0,.494-1.279Z" transform="translate(-445.449 -318.26)"/></g><g transform="translate(185.219 250.458)"><rect class="b" width="36.151" height="36.151" rx="3.891"/><g transform="translate(3.461 11.158)"><g transform="translate(0 1.508)"><path class="a" d="M507.527,353.314l-8.232-.162-.164-6.814.153-.145c3.588-3.388,5.657-5.13,6.163-5.18.605-.061,3.328-.009,3.639,0l-.02.942c-.822-.016-3.058-.048-3.526,0a63.759,63.759,0,0,0-5.456,4.784l.132,5.492,7.051.137,5.517-3.413a1.3,1.3,0,0,0-1.012-2.374l-4.616,1.189-.236-.914,4.615-1.189a2.268,2.268,0,0,1,2.572,1.173,2.237,2.237,0,0,1-.828,2.917Z" transform="translate(-499.131 -340.984)"/></g><g transform="translate(9.517)"><path class="a" d="M524.634,351.85H509.05v-.943h15.585a.377.377,0,0,0,.377-.377v-9.587a.377.377,0,0,0-.377-.376h-15.6a.376.376,0,0,0-.376.376v5.975h-.943v-5.975a1.32,1.32,0,0,1,1.319-1.319h15.608a1.32,1.32,0,0,1,1.319,1.319v9.587a1.321,1.321,0,0,1-1.322,1.32Z" transform="translate(-507.711 -339.624)"/></g><g transform="translate(9.514 1.649)"><path class="a" d="M525.953,344.195H507.708v-3.084h18.245Zm-17.3-.943h16.361v-1.2H508.65Z" transform="translate(-507.708 -341.111)"/></g></g></g><g transform="translate(110.218 31.15)"><rect class="c" width="57.661" height="13.538" rx="1.752"/><path class="c" d="M431.531,142.641v9.025l10.154-10.154Z" transform="translate(-428.052 -130.796)"/><g transform="translate(3.228 3.008)"><rect class="a" width="49.92" height="0.752"/><rect class="a" width="49.92" height="0.752" transform="translate(0 3.384)"/><rect class="a" width="29.676" height="0.752" transform="translate(0 6.768)"/></g></g></g></g></g></svg>